# xmcd
#
# Track frame offsets: 
#        150
#        16400
#        30772
#        48772
#        61130
#        77412
#        94792
#        113777
#        124302
#        141710
#        155145
#        172662
#        185272
#        206087
#        217430
#
# Disc length: 3123 seconds
#
# Revision: 4
# Processed by: cddbd v1.5.2PL0 Copyright (c) Steve Scherf et al.
# Submitted via: ExactAudioCopy v1.3
#
DISCID=cc0c310f
DTITLE=Ray Price - Greatest Hits_CD2
DYEAR=1986
DGENRE=Country
TTITLE0=Night Life
TTITLE1=The Other Woman
TTITLE2=Don't You Ever Tired Of Hurting Me
TTITLE3=I'd Rather Be Sorry
TTITLE4=Grazin' In Greener Pastures
TTITLE5=For The Good Times
TTITLE6=She Wears My Ring
TTITLE7=Help Me Make It Thru The Night
TTITLE8=Getting Over You Again
TTITLE9=Forty And Fadin'
TTITLE10=Diamonds In The Stars
TTITLE11=Sweetheart Of The Year
TTITLE12=I'm Still Not Over You
TTITLE13=It Don't Hurt Me Half As Bad
TTITLE14=I Won't Mention It Again
EXTD=
EXTT0=
EXTT1=
EXTT2=
EXTT3=
EXTT4=
EXTT5=
EXTT6=
EXTT7=
EXTT8=
EXTT9=
EXTT10=
EXTT11=
EXTT12=
EXTT13=
EXTT14=
PLAYORDER=
